<svg width="20" height="20" viewBox="0 0 20 20" fill="none" xmlns="http://www.w3.org/2000/svg">
<path d="M8.37268 2.19531C8.95226 1.20734 10.381 1.20734 10.9606 2.19531L12.6862 5.13965C13.0386 5.74086 13.6265 6.16794 14.3073 6.31738L17.6403 7.04883C18.7592 7.29463 19.2007 8.65319 18.4401 9.50977L16.1735 12.0615C15.7685 12.5175 15.5461 13.103 15.5426 13.707L15.5543 13.9658L15.8883 17.3623C16.0004 18.5026 14.8444 19.3428 13.7946 18.8838L10.6686 17.5166C10.1097 17.2722 9.48344 17.2414 8.90784 17.4248L8.66467 17.5166L5.5387 18.8838C4.48888 19.3428 3.33287 18.5026 3.44495 17.3623L3.77893 13.9658C3.84702 13.2725 3.62241 12.5824 3.15979 12.0615L0.893188 9.50977C0.132554 8.6532 0.574093 7.29463 1.69299 7.04883L5.026 6.31738C5.70671 6.16794 6.29462 5.74086 6.64709 5.13965L8.37268 2.19531Z" fill="#98989A" stroke="#98989A"/>
</svg>
